<?xml version="1.0" encoding="UTF-8" standalone="no"?><svg xmlns="http://www.w3.org/2000/svg" xmlns:xlink="http://www.w3.org/1999/xlink" contentScriptType="application/ecmascript" contentStyleType="text/css" height="1058px" preserveAspectRatio="none" style="width:831px;height:1058px;" version="1.1" viewBox="0 0 831 1058" width="831px" zoomAndPan="magnify"><defs><filter height="300%" id="fqn8j98velo5v" width="300%" x="-1" y="-1"><feGaussianBlur result="blurOut" stdDeviation="2.0"/><feColorMatrix in="blurOut" result="blurOut2" type="matrix" values="0 0 0 0 0 0 0 0 0 0 0 0 0 0 0 0 0 0 .4 0"/><feOffset dx="4.0" dy="4.0" in="blurOut2" result="blurOut3"/><feBlend in="SourceGraphic" in2="blurOut3" mode="normal"/></filter></defs><g><rect fill="#FFFFFF" filter="url(#fqn8j98velo5v)" height="787.7344" style="stroke: #A80036; stroke-width: 1.0;" width="10" x="214.5" y="163.9609"/><rect fill="#FFFFFF" filter="url(#fqn8j98velo5v)" height="579.625" style="stroke: #A80036; stroke-width: 1.0;" width="10" x="398.5" y="237.6641"/><rect fill="#FFFFFF" filter="url(#fqn8j98velo5v)" height="30.3516" style="stroke: #A80036; stroke-width: 1.0;" width="10" x="530" y="386.0703"/><rect fill="#FFFFFF" filter="url(#fqn8j98velo5v)" height="30.3516" style="stroke: #A80036; stroke-width: 1.0;" width="10" x="626" y="638.5313"/><rect fill="#FFFFFF" filter="url(#fqn8j98velo5v)" height="30.3516" style="stroke: #A80036; stroke-width: 1.0;" width="10" x="744" y="890.9922"/><line style="stroke: #A80036; stroke-width: 1.0; stroke-dasharray: 5.0,5.0;" x1="25" x2="25" y1="87.6094" y2="970.0469"/><line style="stroke: #A80036; stroke-width: 1.0; stroke-dasharray: 5.0,5.0;" x1="219" x2="219" y1="87.6094" y2="970.0469"/><line style="stroke: #A80036; stroke-width: 1.0; stroke-dasharray: 5.0,5.0;" x1="403" x2="403" y1="87.6094" y2="970.0469"/><line style="stroke: #A80036; stroke-width: 1.0; stroke-dasharray: 5.0,5.0;" x1="535" x2="535" y1="87.6094" y2="970.0469"/><line style="stroke: #A80036; stroke-width: 1.0; stroke-dasharray: 5.0,5.0;" x1="631" x2="631" y1="87.6094" y2="970.0469"/><line style="stroke: #A80036; stroke-width: 1.0; stroke-dasharray: 5.0,5.0;" x1="749" x2="749" y1="87.6094" y2="970.0469"/><text fill="#000000" font-family="sans-serif" font-size="14" lengthAdjust="spacingAndGlyphs" textLength="29" x="8" y="84.5332">User</text><ellipse cx="25.5" cy="13" fill="#FEFECE" filter="url(#fqn8j98velo5v)" rx="8" ry="8" style="stroke: #A80036; stroke-width: 2.0;"/><path d="M25.5,21 L25.5,48 M12.5,29 L38.5,29 M25.5,48 L12.5,63 M25.5,48 L38.5,63 " fill="#FEFECE" filter="url(#fqn8j98velo5v)" style="stroke: #A80036; stroke-width: 2.0;"/><text fill="#000000" font-family="sans-serif" font-size="14" lengthAdjust="spacingAndGlyphs" textLength="29" x="8" y="983.5801">User</text><ellipse cx="25.5" cy="996.6563" fill="#FEFECE" filter="url(#fqn8j98velo5v)" rx="8" ry="8" style="stroke: #A80036; stroke-width: 2.0;"/><path d="M25.5,1004.6563 L25.5,1031.6563 M12.5,1012.6563 L38.5,1012.6563 M25.5,1031.6563 L12.5,1046.6563 M25.5,1031.6563 L38.5,1046.6563 " fill="#FEFECE" filter="url(#fqn8j98velo5v)" style="stroke: #A80036; stroke-width: 2.0;"/><rect fill="#EEEEEE" filter="url(#fqn8j98velo5v)" height="31.6094" style="stroke: #A80036; stroke-width: 1.5;" width="61" x="187" y="51"/><text fill="#000000" font-family="sans-serif" font-size="14" lengthAdjust="spacingAndGlyphs" textLength="47" x="194" y="72.5332">Monitor</text><rect fill="#EEEEEE" filter="url(#fqn8j98velo5v)" height="31.6094" style="stroke: #A80036; stroke-width: 1.5;" width="61" x="187" y="969.0469"/><text fill="#000000" font-family="sans-serif" font-size="14" lengthAdjust="spacingAndGlyphs" textLength="47" x="194" y="990.5801">Monitor</text><rect fill="#FEFECE" filter="url(#fqn8j98velo5v)" height="31.6094" style="stroke: #A80036; stroke-width: 1.5;" width="153" x="325" y="51"/><text fill="#000000" font-family="sans-serif" font-size="14" lengthAdjust="spacingAndGlyphs" textLength="139" x="332" y="72.5332">User Request Handler</text><rect fill="#FEFECE" filter="url(#fqn8j98velo5v)" height="31.6094" style="stroke: #A80036; stroke-width: 1.5;" width="153" x="325" y="969.0469"/><text fill="#000000" font-family="sans-serif" font-size="14" lengthAdjust="spacingAndGlyphs" textLength="139" x="332" y="990.5801">User Request Handler</text><rect fill="#FEFECE" filter="url(#fqn8j98velo5v)" height="31.6094" style="stroke: #A80036; stroke-width: 1.5;" width="82" x="492" y="51"/><text fill="#000000" font-family="sans-serif" font-size="14" lengthAdjust="spacingAndGlyphs" textLength="68" x="499" y="72.5332">Function A</text><rect fill="#FEFECE" filter="url(#fqn8j98velo5v)" height="31.6094" style="stroke: #A80036; stroke-width: 1.5;" width="82" x="492" y="969.0469"/><text fill="#000000" font-family="sans-serif" font-size="14" lengthAdjust="spacingAndGlyphs" textLength="68" x="499" y="990.5801">Function A</text><rect fill="#FEFECE" filter="url(#fqn8j98velo5v)" height="31.6094" style="stroke: #A80036; stroke-width: 1.5;" width="82" x="588" y="51"/><text fill="#000000" font-family="sans-serif" font-size="14" lengthAdjust="spacingAndGlyphs" textLength="68" x="595" y="72.5332">Function B</text><rect fill="#FEFECE" filter="url(#fqn8j98velo5v)" height="31.6094" style="stroke: #A80036; stroke-width: 1.5;" width="82" x="588" y="969.0469"/><text fill="#000000" font-family="sans-serif" font-size="14" lengthAdjust="spacingAndGlyphs" textLength="68" x="595" y="990.5801">Function B</text><text fill="#000000" font-family="sans-serif" font-size="14" lengthAdjust="spacingAndGlyphs" textLength="124" x="684" y="84.5332">Experience Storage</text><path d="M731,34 C731,24 749,24 749,24 C749,24 767,24 767,34 L767,60 C767,70 749,70 749,70 C749,70 731,70 731,60 L731,34 " fill="#FEFECE" filter="url(#fqn8j98velo5v)" style="stroke: #000000; stroke-width: 1.5;"/><path d="M731,34 C731,44 749,44 749,44 C749,44 767,44 767,34 " fill="none" style="stroke: #000000; stroke-width: 1.5;"/><text fill="#000000" font-family="sans-serif" font-size="14" lengthAdjust="spacingAndGlyphs" textLength="124" x="684" y="983.5801">Experience Storage</text><path d="M731,996.6563 C731,986.6563 749,986.6563 749,986.6563 C749,986.6563 767,986.6563 767,996.6563 L767,1022.6563 C767,1032.6563 749,1032.6563 749,1032.6563 C749,1032.6563 731,1032.6563 731,1022.6563 L731,996.6563 " fill="#FEFECE" filter="url(#fqn8j98velo5v)" style="stroke: #000000; stroke-width: 1.5;"/><path d="M731,996.6563 C731,1006.6563 749,1006.6563 749,1006.6563 C749,1006.6563 767,1006.6563 767,996.6563 " fill="none" style="stroke: #000000; stroke-width: 1.5;"/><rect fill="#FFFFFF" filter="url(#fqn8j98velo5v)" height="787.7344" style="stroke: #A80036; stroke-width: 1.0;" width="10" x="214.5" y="163.9609"/><rect fill="#FFFFFF" filter="url(#fqn8j98velo5v)" height="579.625" style="stroke: #A80036; stroke-width: 1.0;" width="10" x="398.5" y="237.6641"/><rect fill="#FFFFFF" filter="url(#fqn8j98velo5v)" height="30.3516" style="stroke: #A80036; stroke-width: 1.0;" width="10" x="530" y="386.0703"/><rect fill="#FFFFFF" filter="url(#fqn8j98velo5v)" height="30.3516" style="stroke: #A80036; stroke-width: 1.0;" width="10" x="626" y="638.5313"/><rect fill="#FFFFFF" filter="url(#fqn8j98velo5v)" height="30.3516" style="stroke: #A80036; stroke-width: 1.0;" width="10" x="744" y="890.9922"/><rect fill="#EEEEEE" filter="url(#fqn8j98velo5v)" height="3" style="stroke: #EEEEEE; stroke-width: 1.0;" width="816" x="3" y="118.7852"/><line style="stroke: #000000; stroke-width: 1.0;" x1="3" x2="819" y1="118.7852" y2="118.7852"/><line style="stroke: #000000; stroke-width: 1.0;" x1="3" x2="819" y1="121.7852" y2="121.7852"/><rect fill="#EEEEEE" filter="url(#fqn8j98velo5v)" height="24.3516" style="stroke: #000000; stroke-width: 2.0;" width="161" x="330.5" y="107.6094"/><text fill="#000000" font-family="sans-serif" font-size="13" font-weight="bold" lengthAdjust="spacingAndGlyphs" textLength="143" x="336.5" y="125.1045">User Request Initiation</text><polygon fill="#A80036" points="202.5,159.9609,212.5,163.9609,202.5,167.9609,206.5,163.9609" style="stroke: #A80036; stroke-width: 1.0;"/><line style="stroke: #A80036; stroke-width: 1.0;" x1="25.5" x2="208.5" y1="163.9609" y2="163.9609"/><text fill="#000000" font-family="sans-serif" font-size="13" lengthAdjust="spacingAndGlyphs" textLength="79" x="32.5" y="159.4561">User Request</text><line style="stroke: #A80036; stroke-width: 1.0;" x1="224.5" x2="266.5" y1="194.6641" y2="194.6641"/><line style="stroke: #A80036; stroke-width: 1.0;" x1="266.5" x2="266.5" y1="194.6641" y2="207.6641"/><line style="stroke: #A80036; stroke-width: 1.0;" x1="225.5" x2="266.5" y1="207.6641" y2="207.6641"/><polygon fill="#A80036" points="235.5,203.6641,225.5,207.6641,235.5,211.6641,231.5,207.6641" style="stroke: #A80036; stroke-width: 1.0;"/><text fill="#000000" font-family="sans-serif" font-size="13" lengthAdjust="spacingAndGlyphs" textLength="107" x="231.5" y="189.8076">Create Experience</text><polygon fill="#A80036" points="386.5,233.6641,396.5,237.6641,386.5,241.6641,390.5,237.6641" style="stroke: #A80036; stroke-width: 1.0;"/><line style="stroke: #A80036; stroke-width: 1.0;" x1="224.5" x2="392.5" y1="237.6641" y2="237.6641"/><text fill="#000000" font-family="sans-serif" font-size="13" lengthAdjust="spacingAndGlyphs" textLength="154" x="231.5" y="233.1592">Run User Request Handler</text><rect fill="#EEEEEE" filter="url(#fqn8j98velo5v)" height="3" style="stroke: #EEEEEE; stroke-width: 1.0;" width="816" x="3" y="267.1914"/><line style="stroke: #000000; stroke-width: 1.0;" x1="3" x2="819" y1="267.1914" y2="267.1914"/><line style="stroke: #000000; stroke-width: 1.0;" x1="3" x2="819" y1="270.1914" y2="270.1914"/><rect fill="#EEEEEE" filter="url(#fqn8j98velo5v)" height="24.3516" style="stroke: #000000; stroke-width: 2.0;" width="89" x="366.5" y="256.0156"/><text fill="#000000" font-family="sans-serif" font-size="13" font-weight="bold" lengthAdjust="spacingAndGlyphs" textLength="71" x="372.5" y="273.5107">Sub Task A</text><polygon fill="#A80036" points="235.5,308.3672,225.5,312.3672,235.5,316.3672,231.5,312.3672" style="stroke: #A80036; stroke-width: 1.0;"/><line style="stroke: #A80036; stroke-width: 1.0;" x1="229.5" x2="397.5" y1="312.3672" y2="312.3672"/><text fill="#000000" font-family="sans-serif" font-size="13" lengthAdjust="spacingAndGlyphs" textLength="68" x="241.5" y="307.8623">Run Task A</text><line style="stroke: #A80036; stroke-width: 1.0;" x1="224.5" x2="266.5" y1="343.0703" y2="343.0703"/><line style="stroke: #A80036; stroke-width: 1.0;" x1="266.5" x2="266.5" y1="343.0703" y2="356.0703"/><line style="stroke: #A80036; stroke-width: 1.0;" x1="225.5" x2="266.5" y1="356.0703" y2="356.0703"/><polygon fill="#A80036" points="235.5,352.0703,225.5,356.0703,235.5,360.0703,231.5,356.0703" style="stroke: #A80036; stroke-width: 1.0;"/><text fill="#000000" font-family="sans-serif" font-size="13" lengthAdjust="spacingAndGlyphs" textLength="143" x="231.5" y="338.2139">Create SubExperience A</text><polygon fill="#A80036" points="518,382.0703,528,386.0703,518,390.0703,522,386.0703" style="stroke: #A80036; stroke-width: 1.0;"/><line style="stroke: #A80036; stroke-width: 1.0;" x1="224.5" x2="524" y1="386.0703" y2="386.0703"/><text fill="#000000" font-family="sans-serif" font-size="13" lengthAdjust="spacingAndGlyphs" textLength="48" x="231.5" y="381.5654">Execute</text><polygon fill="#A80036" points="235.5,412.4219,225.5,416.4219,235.5,420.4219,231.5,416.4219" style="stroke: #A80036; stroke-width: 1.0;"/><line style="stroke: #A80036; stroke-width: 1.0; stroke-dasharray: 2.0,2.0;" x1="229.5" x2="534" y1="416.4219" y2="416.4219"/><text fill="#000000" font-family="sans-serif" font-size="13" lengthAdjust="spacingAndGlyphs" textLength="75" x="241.5" y="411.917">Return Value</text><line style="stroke: #A80036; stroke-width: 1.0;" x1="224.5" x2="266.5" y1="447.125" y2="447.125"/><line style="stroke: #A80036; stroke-width: 1.0;" x1="266.5" x2="266.5" y1="447.125" y2="460.125"/><line style="stroke: #A80036; stroke-width: 1.0;" x1="225.5" x2="266.5" y1="460.125" y2="460.125"/><polygon fill="#A80036" points="235.5,456.125,225.5,460.125,235.5,464.125,231.5,460.125" style="stroke: #A80036; stroke-width: 1.0;"/><text fill="#000000" font-family="sans-serif" font-size="13" lengthAdjust="spacingAndGlyphs" textLength="160" x="231.5" y="442.2686">Complete SubExperience A</text><polygon fill="#A80036" points="386.5,486.125,396.5,490.125,386.5,494.125,390.5,490.125" style="stroke: #A80036; stroke-width: 1.0;"/><line style="stroke: #A80036; stroke-width: 1.0;" x1="224.5" x2="392.5" y1="490.125" y2="490.125"/><text fill="#000000" font-family="sans-serif" font-size="13" lengthAdjust="spacingAndGlyphs" textLength="142" x="231.5" y="485.6201">Function A Return Value</text><rect fill="#EEEEEE" filter="url(#fqn8j98velo5v)" height="3" style="stroke: #EEEEEE; stroke-width: 1.0;" width="816" x="3" y="519.6523"/><line style="stroke: #000000; stroke-width: 1.0;" x1="3" x2="819" y1="519.6523" y2="519.6523"/><line style="stroke: #000000; stroke-width: 1.0;" x1="3" x2="819" y1="522.6523" y2="522.6523"/><rect fill="#EEEEEE" filter="url(#fqn8j98velo5v)" height="24.3516" style="stroke: #000000; stroke-width: 2.0;" width="89" x="366.5" y="508.4766"/><text fill="#000000" font-family="sans-serif" font-size="13" font-weight="bold" lengthAdjust="spacingAndGlyphs" textLength="71" x="372.5" y="525.9717">Sub Task B</text><polygon fill="#A80036" points="235.5,560.8281,225.5,564.8281,235.5,568.8281,231.5,564.8281" style="stroke: #A80036; stroke-width: 1.0;"/><line style="stroke: #A80036; stroke-width: 1.0;" x1="229.5" x2="397.5" y1="564.8281" y2="564.8281"/><text fill="#000000" font-family="sans-serif" font-size="13" lengthAdjust="spacingAndGlyphs" textLength="68" x="241.5" y="560.3232">Run Task B</text><line style="stroke: #A80036; stroke-width: 1.0;" x1="224.5" x2="266.5" y1="595.5313" y2="595.5313"/><line style="stroke: #A80036; stroke-width: 1.0;" x1="266.5" x2="266.5" y1="595.5313" y2="608.5313"/><line style="stroke: #A80036; stroke-width: 1.0;" x1="225.5" x2="266.5" y1="608.5313" y2="608.5313"/><polygon fill="#A80036" points="235.5,604.5313,225.5,608.5313,235.5,612.5313,231.5,608.5313" style="stroke: #A80036; stroke-width: 1.0;"/><text fill="#000000" font-family="sans-serif" font-size="13" lengthAdjust="spacingAndGlyphs" textLength="143" x="231.5" y="590.6748">Create SubExperience B</text><polygon fill="#A80036" points="614,634.5313,624,638.5313,614,642.5313,618,638.5313" style="stroke: #A80036; stroke-width: 1.0;"/><line style="stroke: #A80036; stroke-width: 1.0;" x1="224.5" x2="620" y1="638.5313" y2="638.5313"/><text fill="#000000" font-family="sans-serif" font-size="13" lengthAdjust="spacingAndGlyphs" textLength="48" x="231.5" y="634.0264">Execute</text><polygon fill="#A80036" points="235.5,664.8828,225.5,668.8828,235.5,672.8828,231.5,668.8828" style="stroke: #A80036; stroke-width: 1.0;"/><line style="stroke: #A80036; stroke-width: 1.0; stroke-dasharray: 2.0,2.0;" x1="229.5" x2="630" y1="668.8828" y2="668.8828"/><text fill="#000000" font-family="sans-serif" font-size="13" lengthAdjust="spacingAndGlyphs" textLength="75" x="241.5" y="664.3779">Return Value</text><line style="stroke: #A80036; stroke-width: 1.0;" x1="224.5" x2="266.5" y1="699.5859" y2="699.5859"/><line style="stroke: #A80036; stroke-width: 1.0;" x1="266.5" x2="266.5" y1="699.5859" y2="712.5859"/><line style="stroke: #A80036; stroke-width: 1.0;" x1="225.5" x2="266.5" y1="712.5859" y2="712.5859"/><polygon fill="#A80036" points="235.5,708.5859,225.5,712.5859,235.5,716.5859,231.5,712.5859" style="stroke: #A80036; stroke-width: 1.0;"/><text fill="#000000" font-family="sans-serif" font-size="13" lengthAdjust="spacingAndGlyphs" textLength="160" x="231.5" y="694.7295">Complete SubExperience B</text><polygon fill="#A80036" points="386.5,738.5859,396.5,742.5859,386.5,746.5859,390.5,742.5859" style="stroke: #A80036; stroke-width: 1.0;"/><line style="stroke: #A80036; stroke-width: 1.0;" x1="224.5" x2="392.5" y1="742.5859" y2="742.5859"/><text fill="#000000" font-family="sans-serif" font-size="13" lengthAdjust="spacingAndGlyphs" textLength="142" x="231.5" y="738.0811">Function B Return Value</text><rect fill="#EEEEEE" filter="url(#fqn8j98velo5v)" height="3" style="stroke: #EEEEEE; stroke-width: 1.0;" width="816" x="3" y="772.1133"/><line style="stroke: #000000; stroke-width: 1.0;" x1="3" x2="819" y1="772.1133" y2="772.1133"/><line style="stroke: #000000; stroke-width: 1.0;" x1="3" x2="819" y1="775.1133" y2="775.1133"/><rect fill="#EEEEEE" filter="url(#fqn8j98velo5v)" height="24.3516" style="stroke: #000000; stroke-width: 2.0;" width="178" x="322" y="760.9375"/><text fill="#000000" font-family="sans-serif" font-size="13" font-weight="bold" lengthAdjust="spacingAndGlyphs" textLength="160" x="328" y="778.4326">User Request Completion</text><polygon fill="#A80036" points="235.5,813.2891,225.5,817.2891,235.5,821.2891,231.5,817.2891" style="stroke: #A80036; stroke-width: 1.0;"/><line style="stroke: #A80036; stroke-width: 1.0; stroke-dasharray: 2.0,2.0;" x1="229.5" x2="402.5" y1="817.2891" y2="817.2891"/><text fill="#000000" font-family="sans-serif" font-size="13" lengthAdjust="spacingAndGlyphs" textLength="127" x="241.5" y="812.7842">User Request Fulfilled</text><line style="stroke: #A80036; stroke-width: 1.0;" x1="224.5" x2="266.5" y1="847.9922" y2="847.9922"/><line style="stroke: #A80036; stroke-width: 1.0;" x1="266.5" x2="266.5" y1="847.9922" y2="860.9922"/><line style="stroke: #A80036; stroke-width: 1.0;" x1="225.5" x2="266.5" y1="860.9922" y2="860.9922"/><polygon fill="#A80036" points="235.5,856.9922,225.5,860.9922,235.5,864.9922,231.5,860.9922" style="stroke: #A80036; stroke-width: 1.0;"/><text fill="#000000" font-family="sans-serif" font-size="13" lengthAdjust="spacingAndGlyphs" textLength="124" x="231.5" y="843.1357">Complete Experience</text><polygon fill="#A80036" points="732,886.9922,742,890.9922,732,894.9922,736,890.9922" style="stroke: #A80036; stroke-width: 1.0;"/><line style="stroke: #A80036; stroke-width: 1.0;" x1="224.5" x2="738" y1="890.9922" y2="890.9922"/><text fill="#000000" font-family="sans-serif" font-size="13" lengthAdjust="spacingAndGlyphs" textLength="100" x="231.5" y="886.4873">Store Experience</text><polygon fill="#A80036" points="235.5,917.3438,225.5,921.3438,235.5,925.3438,231.5,921.3438" style="stroke: #A80036; stroke-width: 1.0;"/><line style="stroke: #A80036; stroke-width: 1.0; stroke-dasharray: 2.0,2.0;" x1="229.5" x2="748" y1="921.3438" y2="921.3438"/><text fill="#000000" font-family="sans-serif" font-size="13" lengthAdjust="spacingAndGlyphs" textLength="107" x="241.5" y="916.8389">Experience Stored</text><polygon fill="#A80036" points="36.5,947.6953,26.5,951.6953,36.5,955.6953,32.5,951.6953" style="stroke: #A80036; stroke-width: 1.0;"/><line style="stroke: #A80036; stroke-width: 1.0;" x1="30.5" x2="218.5" y1="951.6953" y2="951.6953"/><text fill="#000000" font-family="sans-serif" font-size="13" lengthAdjust="spacingAndGlyphs" textLength="165" x="42.5" y="947.1904">Experience Action Complete</text><!--
@startuml
actor User
participant Monitor #EEE
participant "User Request Handler"
participant "Function A"
participant "Function B"
database "Experience Storage"

== User Request Initiation ==
User -> Monitor: User Request
activate Monitor
Monitor -> Monitor: Create Experience
Monitor -> "User Request Handler": Run User Request Handler
activate "User Request Handler"

== Sub Task A ==
"User Request Handler" -> Monitor: Run Task A
Monitor -> Monitor: Create SubExperience A
Monitor -> "Function A":  Execute
activate "Function A"
"Function A" - -> Monitor: Return Value
deactivate "Function A"
Monitor -> Monitor: Complete SubExperience A
Monitor -> "User Request Handler": Function A Return Value

== Sub Task B ==
"User Request Handler" -> Monitor: Run Task B
Monitor -> Monitor: Create SubExperience B
Monitor -> "Function B":  Execute
activate "Function B"
"Function B" - -> Monitor: Return Value
deactivate "Function B"
Monitor -> Monitor: Complete SubExperience B
Monitor -> "User Request Handler": Function B Return Value

== User Request Completion ==
"User Request Handler" - -> Monitor: User Request Fulfilled
deactivate "User Request Handler"
Monitor -> Monitor: Complete Experience

Monitor -> "Experience Storage": Store Experience
activate "Experience Storage"
"Experience Storage" - -> Monitor: Experience Stored
deactivate "Experience Storage"

Monitor -> User: Experience Action Complete
deactivate Monitor
@enduml

PlantUML version 1.2017.15(Mon Jul 03 20:45:34 SAMT 2017)
(GPL source distribution)
Java Runtime: OpenJDK Runtime Environment
JVM: OpenJDK 64-Bit Server VM
Java Version: 1.8.0_152-release-915-b11
Operating System: Windows 10
OS Version: 10.0
Default Encoding: Cp1251
Language: en
Country: US
--></g></svg>